<svg height="512" viewBox="0 0 64 64" width="512" xmlns="http://www.w3.org/2000/svg"><g id="data_transfer" data-name="data transfer"><path d="m61 52v2a2.006 2.006 0 0 1 -2 2h-14a2.006 2.006 0 0 1 -2-2v-2z" fill="#ffeb99"/><path d="m61 44v8h-18v-8a2.006 2.006 0 0 1 2-2h14a2.006 2.006 0 0 1 2 2z" fill="#00d7df"/><path d="m53.93 56 .98 5h-5.82l.98-5z" fill="#ffeb99"/><path d="m49 19a5 5 0 0 1 0 10h-34a5 5 0 0 1 0-10h1c-.28-.78-1-1.62-1-2.5a7.495 7.495 0 0 1 14.01-3.71 10 10 0 1 1 17.98 6.21z" fill="#57a4ff"/><path d="m49 13a10 10 0 0 1 -2.01 6h-2a9.991 9.991 0 0 0 -6.97-15.95c.32-.03.65-.05.98-.05a10 10 0 0 1 10 10z" fill="#2488ff"/><path d="m54 24a5 5 0 0 1 -5 5h-2a5 5 0 0 0 0-10h2a5 5 0 0 1 5 5z" fill="#2488ff"/><path d="m38 43v16a2.006 2.006 0 0 1 -2 2h-8a2.006 2.006 0 0 1 -2-2v-16a2.006 2.006 0 0 1 2-2h1v1a2.006 2.006 0 0 0 2 2h2a2.006 2.006 0 0 0 2-2v-1h1a2.006 2.006 0 0 1 2 2z" fill="#00d7df"/><path d="m35 41v1a2.006 2.006 0 0 1 -2 2h-2a2.006 2.006 0 0 1 -2-2v-1z" fill="#ffeb99"/><path d="m21.88 57-.46 1.56a2 2 0 0 1 -1.92 1.44h-15a2 2 0 0 1 -1.92-1.44l-.46-1.56h7.88v1h4v-1z" fill="#ffeb99"/><rect fill="#00d7df" height="12" rx="2" width="18" x="3" y="42"/><path d="m15 30h34a6 6 0 0 0 0-12h-.208a10.874 10.874 0 0 0 1.208-5 10.994 10.994 0 0 0 -21.661-2.667 8.492 8.492 0 0 0 -14.339 6.167 3.518 3.518 0 0 0 .4 1.53 6 6 0 0 0 .6 11.97zm0-10h1a1 1 0 0 0 .942-1.334 6.979 6.979 0 0 0 -.479-1 3.033 3.033 0 0 1 -.463-1.166 6.5 6.5 0 0 1 12.143-3.217 1 1 0 0 0 1.868-.475 9 9 0 0 1 17.989.192 8.914 8.914 0 0 1 -1.812 5.4 1 1 0 0 0 .8 1.6h2.012a4 4 0 0 1 0 8h-34a4 4 0 0 1 0-8z"/><path d="m22.5 14v-2a4.5 4.5 0 0 0 -4.47 3.977l1.987.231a2.5 2.5 0 0 1 2.483-2.208z"/><path d="m44 13h2a7.008 7.008 0 0 0 -7-7v2a5.006 5.006 0 0 1 5 5z"/><path d="m36 40h-8a3 3 0 0 0 -3 3v16a3 3 0 0 0 3 3h8a3 3 0 0 0 3-3v-16a3 3 0 0 0 -3-3zm-2 2a1 1 0 0 1 -1 1h-2a1 1 0 0 1 -1-1zm3 17a1 1 0 0 1 -1 1h-8a1 1 0 0 1 -1-1v-16a1 1 0 0 1 1-1 3 3 0 0 0 3 3h2a3 3 0 0 0 3-3 1 1 0 0 1 1 1z"/><path d="m57 48h2v-3a1 1 0 0 0 -1-1h-3v2h2z"/><path d="m59 41h-14a3 3 0 0 0 -3 3v10a3 3 0 0 0 3 3h3.851l-.746 3.808a1 1 0 0 0 .982 1.192h5.826a1 1 0 0 0 .982-1.192l-.746-3.808h3.851a3 3 0 0 0 3-3v-10a3 3 0 0 0 -3-3zm-14 2h14a1 1 0 0 1 1 1v7h-16v-7a1 1 0 0 1 1-1zm8.7 17h-3.4l.587-3h2.222zm5.3-5h-14a1 1 0 0 1 -1-1v-1h16v1a1 1 0 0 1 -1 1z"/><path d="m21.875 56h-7.875a1 1 0 0 0 -1 1h-2a1 1 0 0 0 -1-1h-7.875a1 1 0 0 0 -.96 1.28l.455 1.56a3.015 3.015 0 0 0 2.88 2.16h15a3.015 3.015 0 0 0 2.88-2.16l.455-1.56a1 1 0 0 0 -.96-1.28zm-17.375 3a1.006 1.006 0 0 1 -.96-.72l-.082-.28h5.542a1 1 0 0 0 1 1zm15.96-.72a1.006 1.006 0 0 1 -.96.72h-5.5a1 1 0 0 0 1-1h5.542z"/><path d="m5 55h14a3 3 0 0 0 3-3v-8a3 3 0 0 0 -3-3h-14a3 3 0 0 0 -3 3v8a3 3 0 0 0 3 3zm-1-11a1 1 0 0 1 1-1h14a1 1 0 0 1 1 1v8a1 1 0 0 1 -1 1h-14a1 1 0 0 1 -1-1z"/><path d="m31 32h2v6h-2z"/><path d="m22 34h-11a1 1 0 0 0 -1 1v4h2v-3h11a1 1 0 0 0 1-1v-3h-2z"/><path d="m52 39h2v-4a1 1 0 0 0 -1-1h-11v-2h-2v3a1 1 0 0 0 1 1h11z"/><path d="m17 48h2v-3a1 1 0 0 0 -1-1h-3v2h2z"/></g></svg>