<svg id="Capa_1" enable-background="new 0 0 512 512" height="512" viewBox="0 0 512 512" width="512" xmlns="http://www.w3.org/2000/svg"><path d="m150.799 46.837h210.402c4.143 0 7.502-3.359 7.502-7.502s-3.359-7.502-7.502-7.502h-210.402c-4.143 0-7.502 3.359-7.502 7.502s3.359 7.502 7.502 7.502z"/><path d="m431.399 0c-10.259 0-345.565 0-350.798 0-15.257 0-27.67 12.413-27.67 27.67v456.66c0 15.257 12.413 27.67 27.67 27.67h350.797c15.257 0 27.67-12.413 27.67-27.67v-456.66c0-15.257-12.412-27.67-27.669-27.67zm-305.445 15.003h260.093v48.388c0 .21-.17.38-.38.38h-259.333c-.21 0-.38-.17-.38-.38zm260.092 481.994h-24.844v-22.926c0-4.143-3.359-7.502-7.502-7.502s-7.501 3.359-7.501 7.502v22.926h-33.847v-22.926c0-4.143-3.359-7.502-7.501-7.502-4.143 0-7.502 3.359-7.502 7.502v22.926h-33.847v-22.926c0-4.143-3.359-7.502-7.502-7.502s-7.502 3.359-7.502 7.502v22.926h-33.847v-22.926c0-4.143-3.359-7.502-7.502-7.502s-7.502 3.359-7.502 7.502v22.926h-33.847v-22.926c0-4.143-3.359-7.502-7.502-7.502s-7.502 3.359-7.502 7.502v22.926h-24.844v-48.492c0-.21.17-.38.38-.38h259.333c.21 0 .38.17.38.38v48.492zm58.019-12.667c0 6.984-5.682 12.667-12.667 12.667h-30.349v-48.492c0-8.482-6.901-15.383-15.383-15.383h-259.332c-8.482 0-15.383 6.901-15.383 15.383v48.492h-30.35c-6.984 0-12.667-5.682-12.667-12.667v-456.66c0-6.984 5.682-12.667 12.667-12.667h30.349v48.388c0 8.482 6.901 15.383 15.383 15.383h259.333c8.482 0 15.383-6.901 15.383-15.383v-48.388h30.349c6.984 0 12.667 5.682 12.667 12.667z"/><path d="m393.548 339.34c-4.143 0-7.501 3.359-7.501 7.502v13.385c0 3.252-2.645 5.897-5.897 5.897h-248.3c-3.252 0-5.897-2.646-5.897-5.897v-154.929c0-4.143-3.359-7.502-7.502-7.502s-7.502 3.359-7.502 7.502v154.928c0 11.524 9.375 20.9 20.9 20.9h248.301c11.524 0 20.9-9.376 20.9-20.9v-13.385c-.001-4.142-3.359-7.501-7.502-7.501z"/><path d="m380.15 130.874h-248.3c-11.524 0-20.9 9.375-20.9 20.9v18.451c0 4.143 3.359 7.502 7.502 7.502s7.502-3.359 7.502-7.502v-18.451c0-3.252 2.645-5.897 5.897-5.897h248.299c3.252 0 5.897 2.645 5.897 5.897v159.994c0 4.143 3.359 7.502 7.501 7.502 4.143 0 7.502-3.359 7.502-7.502v-159.995c-.001-11.524-9.376-20.899-20.9-20.899z"/><path d="m329.717 214.422h-19.174c-4.145 0-7.508 3.367-7.5 7.514v.049.007 66.531c0 5.554 3.626 8.6 7.637 8.6h.028c.579-.002 14.245-.055 19.701-.15 19.787-.346 34.148-17.673 34.148-41.201 0-24.732-14.001-41.35-34.84-41.35zm.429 67.553c-2.739.048-7.741.085-11.992.111-.026-8.002-.063-20.332-.063-26.388 0-5.054-.021-17.957-.035-26.276h11.661c14.628 0 19.84 13.612 19.84 26.351 0 12.456-6.075 25.969-19.411 26.202z"/><path d="m187.908 249.286c-8.765-3.233-16.91-6.758-19.2-7.762-3.972-3.047-3.128-10.175 4.116-12.357 10.493-3.163 20.097 4.479 20.325 4.664 3.171 2.635 7.878 2.217 10.534-.943 2.665-3.171 2.255-7.902-.916-10.567-.638-.537-15.832-13.07-34.271-7.516-21.751 6.552-21.445 33.489-6.536 40.137.402.18 9.974 4.44 20.756 8.417 17.879 6.593 8.671 19.796-3.462 19.796-7.272 0-14.283-2.945-18.754-7.878-2.781-3.068-7.524-3.303-10.594-.521-3.069 2.782-3.302 7.524-.521 10.594 7.267 8.018 18.433 12.805 29.869 12.805 29.63 0 41.747-36.663 8.654-48.869z"/><path d="m264.58 249.286c-8.764-3.232-16.909-6.757-19.2-7.762-3.972-3.047-3.128-10.175 4.116-12.357 10.491-3.158 20.089 4.474 20.325 4.664 3.171 2.636 7.878 2.217 10.534-.942 2.665-3.171 2.255-7.902-.916-10.567-.638-.537-15.832-13.07-34.27-7.516-21.631 6.516-21.551 33.442-6.537 40.137.402.18 9.974 4.44 20.756 8.417 17.879 6.593 8.671 19.796-3.462 19.796-7.272 0-14.283-2.945-18.753-7.878-2.781-3.069-7.524-3.303-10.594-.521-3.069 2.782-3.303 7.524-.521 10.594 7.267 8.019 18.433 12.806 29.869 12.806 29.629-.002 41.746-36.665 8.653-48.871z"/></svg>