<svg height="512" viewBox="0 0 64 64" width="512" xmlns="http://www.w3.org/2000/svg"><g id="File_access" data-name="File access"><path d="m21 3h36a4 4 0 0 1 4 4v50a4 4 0 0 1 -4 4h-36a0 0 0 0 1 0 0v-58a0 0 0 0 1 0 0z" fill="#ffcd00"/><path d="m5 3h16v57h-16z" fill="#6d6e71"/><path d="m9 30.162v4.838l3 3-3 3 3 3-3 3 3 3-3 3v2l4 4 4-4v-24.838a9.966 9.966 0 0 1 -8 0z" fill="#ed1c24"/><path d="m23 21a9.92 9.92 0 0 1 -1.68 5.54 10.093 10.093 0 0 1 -4.32 3.62 10 10 0 1 1 6-9.16z" fill="#d80027"/><circle cx="13" cy="18" fill="#f1f2f2" r="3"/><path d="m22 61h35a4 4 0 0 0 4-4v-37c0 22.662-17.443 41-39 41z" fill="#ddb200"/><g fill="#231f20"><path d="m57 2h-52a1 1 0 0 0 -1 1v11.7a10.938 10.938 0 0 0 0 12.61v33.69a1 1 0 0 0 1 1h52a5.006 5.006 0 0 0 5-5v-50a5.006 5.006 0 0 0 -5-5zm-37 2v8.521a10.979 10.979 0 0 0 -14 0v-8.521zm-7 8a9 9 0 1 1 -9 9 9.01 9.01 0 0 1 9-9zm-.293 37.293-2.293-2.293 2.293-2.293a1 1 0 0 0 0-1.414l-2.293-2.293 2.293-2.293a1 1 0 0 0 0-1.414l-2.707-2.707v-3.012a10.776 10.776 0 0 0 6 0v23.012l-3 3-3-3v-1.172l2.707-2.707a1 1 0 0 0 0-1.414zm-6.707 10.707v-30.521a11.013 11.013 0 0 0 2 1.307v4.214a1 1 0 0 0 .293.707l2.293 2.293-2.293 2.293a1 1 0 0 0 0 1.414l2.293 2.293-2.293 2.293a1 1 0 0 0 0 1.414l2.293 2.293-2.293 2.293a1 1 0 0 0 -.293.707v2a1 1 0 0 0 .293.707l4 4a1 1 0 0 0 1.414 0l4-4a1 1 0 0 0 .293-.707v-24.214a11.013 11.013 0 0 0 2-1.307v30.521zm54-3a3 3 0 0 1 -3 3h-35v-32.695a10.938 10.938 0 0 0 0-12.605v-10.7h35a3 3 0 0 1 3 3z"/><path d="m13 22a4 4 0 1 0 -4-4 4 4 0 0 0 4 4zm0-6a2 2 0 1 1 -2 2 2 2 0 0 1 2-2z"/><path d="m53 11h-24a1 1 0 0 0 0 2h24a1 1 0 0 0 0-2z"/><path d="m53 19h-24a1 1 0 0 0 0 2h24a1 1 0 0 0 0-2z"/><path d="m53 27h-24a1 1 0 0 0 0 2h24a1 1 0 0 0 0-2z"/><path d="m53 35h-24a1 1 0 0 0 0 2h24a1 1 0 0 0 0-2z"/><path d="m53 43h-24a1 1 0 0 0 0 2h24a1 1 0 0 0 0-2z"/><path d="m53 51h-24a1 1 0 0 0 0 2h24a1 1 0 0 0 0-2z"/></g></g></svg>