<?xml version="1.0"?>
<svg xmlns="http://www.w3.org/2000/svg" viewBox="0 0 64 64" width="512" height="512"><g id="Stratup"><path d="M29.212,21.385a1,1,0,0,0-.182.858l1,4A1,1,0,0,0,31,27h2a1,1,0,0,0,.97-.757l1-4A1,1,0,0,0,34,21H30A1,1,0,0,0,29.212,21.385ZM32.719,23l-.5,2h-.438l-.5-2Z"/><path d="M31,13v4a1,1,0,0,0,2,0V13a1,1,0,0,0-2,0Z"/><path d="M36,38a4,4,0,0,0-8,0c0,1.941,2.712,5.062,3.256,5.668a1,1,0,0,0,1.488,0C33.288,43.062,36,39.941,36,38Zm-6,0a2,2,0,0,1,4,0c0,.637-.939,2.125-2,3.451C30.937,40.119,30,38.62,30,38Z"/><path d="M33,47H31a1,1,0,0,0,0,2h2a1,1,0,0,0,0-2Z"/><path d="M57,10H37.856a18.911,18.911,0,0,0-4.42-6.979l-.729-.728a1,1,0,0,0-1.414,0l-.728.728A18.9,18.9,0,0,0,26.144,10H7a5.006,5.006,0,0,0-5,5V47a5.006,5.006,0,0,0,5,5H25v4H18a3,3,0,0,0,0,6H46a3,3,0,0,0,0-6H39V52H57a5.006,5.006,0,0,0,5-5V15A5.006,5.006,0,0,0,57,10ZM38,30a1,1,0,0,0,1-1V28h5a1,1,0,0,0,1-1,7.006,7.006,0,0,0-6-6.92V16.456c0-.153-.019-.3-.022-.456H56V29.82a5.976,5.976,0,0,0-8.878,3.968c-.021.1-.032.2-.048.306A5,5,0,0,0,43,39c0,.033.006.067.007.1A5.009,5.009,0,0,0,39,44H25a5.009,5.009,0,0,0-4.007-4.9c0-.033.007-.067.007-.1a5,5,0,0,0-4.074-4.906c-.016-.1-.027-.208-.048-.306A5.976,5.976,0,0,0,8,29.82V16H25.022c0,.153-.022.3-.022.456V20.08A7,7,0,0,0,19,27a1,1,0,0,0,1,1h5v1a1,1,0,0,0,1,1h2.279l.772,2.316A1,1,0,0,0,30,33h4a1,1,0,0,0,.948-.684L35.72,30Zm1-4V22.1A5.013,5.013,0,0,1,42.9,26Zm8.308,14.25a4.979,4.979,0,0,0-2.293-1.136c0-.037-.015-.078-.015-.114a3,3,0,0,1,5.013-2.225,1,1,0,1,0,1.343-1.482A4.977,4.977,0,0,0,49.1,34.135,3.972,3.972,0,0,1,56,32.39V44H41a3.006,3.006,0,0,1,2.992-3,.979.979,0,0,0,.11.009,2.984,2.984,0,0,1,1.883.741,1,1,0,0,0,1.323-1.5ZM12.574,36.706a1,1,0,0,0,1.413.069A3,3,0,0,1,19,39c0,.036-.013.077-.015.114a4.979,4.979,0,0,0-2.293,1.136,1,1,0,0,0,1.323,1.5,2.984,2.984,0,0,1,1.883-.741.979.979,0,0,0,.11-.009A3.006,3.006,0,0,1,23,44H8V32.39a3.972,3.972,0,0,1,6.9,1.745,4.977,4.977,0,0,0-2.257,1.158A1,1,0,0,0,12.574,36.706ZM25,26H21.1A5.013,5.013,0,0,1,25,22.1Zm5.387,4h3.225l-.333,1H30.721ZM31.979,4.435,32,4.414l.021.021a17.172,17.172,0,0,1,2.351,2.959,5.107,5.107,0,0,1-4.744,0A17.076,17.076,0,0,1,31.979,4.435ZM27,16.456a17.026,17.026,0,0,1,.768-5.061l.006-.018a16.731,16.731,0,0,1,.888-2.226,6.99,6.99,0,0,0,6.676,0,16.668,16.668,0,0,1,.889,2.229l.005.012A17.072,17.072,0,0,1,37,16.456V28H27ZM46,58a1,1,0,0,1,0,2H18a1,1,0,0,1,0-2ZM27,56V52H37v4Zm33-9a3,3,0,0,1-3,3H7a3,3,0,0,1-3-3V15a3,3,0,0,1,3-3H25.545a18.831,18.831,0,0,0-.369,2H7a1,1,0,0,0-1,1V45a1,1,0,0,0,1,1H57a1,1,0,0,0,1-1V15a1,1,0,0,0-1-1H38.824a18.831,18.831,0,0,0-.369-2H57a3,3,0,0,1,3,3Z"/></g></svg>
