<svg height="512" viewBox="0 0 64 64" width="512" xmlns="http://www.w3.org/2000/svg"><g id="Website"><path d="m25 57h-22v2a2.006 2.006 0 0 0 2 2h54a2.006 2.006 0 0 0 2-2v-2z" fill="#003f8a"/><path d="m43.879 35.979-9.179-2.135 1.638 7.156.47 2.05 2.121-2.121 7.071 7.071 2.828-2.828-4.171-4.172h-1.997 1.997l-2.9-2.9z" fill="none"/><path d="m55 15h-46a2.006 2.006 0 0 0 -2 2v28h50v-28a2.006 2.006 0 0 0 -2-2z" fill="#2488ff"/><path d="m57 45h-50l-4 12h58z" fill="#005ece"/><path d="m11 11v4 26h42v-26-4z" fill="#ffcd00"/><path d="m16 41h37v-30c0 16.582-16.549 30-37 30z" fill="#ddb200"/><path d="m51 3h-38a2 2 0 0 0 -2 2v6h42v-6a2 2 0 0 0 -2-2z" fill="#d80027"/><path d="m38 53h-12l-1 4h14z" fill="#ffcd00"/><path d="m38.929 40.929 7.071 7.071 2.828-2.828-7.071-7.072 2.122-2.121-9.179-2.135 1.638 7.156h.002-.002l.47 2.05z" fill="#ed1c24"/><g fill="#231f20"><path d="m23.447 22.105a1 1 0 0 0 -1.342.448l-1.105 2.211-1.1-2.211a1.042 1.042 0 0 0 -1.79 0l-1.11 2.211-1.1-2.211a1 1 0 0 0 -1.79.894l2 4a1.042 1.042 0 0 0 1.79 0l1.1-2.211 1.105 2.211a1 1 0 0 0 1.79 0l2-4a1 1 0 0 0 -.448-1.342z"/><path d="m33.9 27.447 2-4a1 1 0 0 0 -1.79-.894l-1.11 2.211-1.1-2.211a1.042 1.042 0 0 0 -1.79 0l-1.11 2.211-1.1-2.211a1 1 0 0 0 -1.79.894l2 4a1.042 1.042 0 0 0 1.79 0l1.1-2.211 1.1 2.211a1 1 0 0 0 1.79 0z"/><path d="m40.1 27.447a1.042 1.042 0 0 0 1.79 0l1.11-2.211 1.1 2.211a1 1 0 0 0 1.79 0l2-4a1 1 0 0 0 -1.79-.894l-1.1 2.211-1.1-2.211a1.042 1.042 0 0 0 -1.79 0l-1.11 2.211-1.1-2.211a1 1 0 0 0 -1.79.894z"/><path d="m25.71 26.29a1.047 1.047 0 0 0 -1.42 0 1.032 1.032 0 0 0 -.21.33 1 1 0 0 0 -.08.38 1.052 1.052 0 0 0 .29.71 1.032 1.032 0 0 0 .33.21 1 1 0 0 0 .38.08.99.99 0 0 0 1-1 1 1 0 0 0 -.08-.38 1.155 1.155 0 0 0 -.21-.33z"/><path d="m37 28a1 1 0 0 0 .71-1.71l-.15-.12a.776.776 0 0 0 -.18-.09.646.646 0 0 0 -.18-.06.9.9 0 0 0 -.4 0 .636.636 0 0 0 -.18.06.782.782 0 0 0 -.181.09l-.149.12a1 1 0 0 0 .71 1.71z"/><path d="m48.29 27.71a1.05 1.05 0 0 0 .71.29 1.2 1.2 0 0 0 .189-.02.609.609 0 0 0 .191-.06.568.568 0 0 0 .17-.09 1.035 1.035 0 0 0 .15-.12 1.038 1.038 0 0 0 .3-.71 1.017 1.017 0 0 0 -.3-.71 1.034 1.034 0 0 0 -1.41 0 1.047 1.047 0 0 0 -.29.71.838.838 0 0 0 .08.38 1.155 1.155 0 0 0 .21.33z"/><path d="m58 44.838v-27.838a3 3 0 0 0 -3-3h-1v-9a3 3 0 0 0 -3-3h-38a3 3 0 0 0 -3 3v9h-1a3 3 0 0 0 -3 3v27.838l-4 12v2.162a3 3 0 0 0 3 3h54a3 3 0 0 0 3-3v-2.162zm-18.22 11.162-.81-3.243a1 1 0 0 0 -.97-.757h-12a1 1 0 0 0 -.97.757l-.811 3.243h-19.832l3.334-10h34.865l2.707 2.707a1 1 0 0 0 1.414 0l2.707-2.707h6.865l3.334 10zm-2.061 0h-11.438l.5-2h10.438zm-25.719-44h40v28h-6.929l-1.9-1.9 1.414-1.415a1 1 0 0 0 -.481-1.681l-9.177-2.134a1 1 0 0 0 -1.2 1.2l1.357 5.93h-23.084zm24.032 23.18 5.868 1.365-.847.849a1 1 0 0 0 0 1.414l6.363 6.363-1.416 1.415-6.364-6.364a1 1 0 0 0 -1.414 0l-.843.842zm1.483 8.577 1.414-1.414 1.657 1.657h-3.486a.988.988 0 0 0 .415-.243zm17.485-27.757a1 1 0 0 1 1 1v27h-6.929l-2-2h5.929a1 1 0 0 0 1-1v-25zm-43-11a1 1 0 0 1 1-1h38a1 1 0 0 1 1 1v5h-40zm-4 12a1 1 0 0 1 1-1h1v25a1 1 0 0 0 1 1h24.542l.291 1.273a1 1 0 0 0 .673.727h-28.506zm51 43h-54a1 1 0 0 1 -1-1v-1h56v1a1 1 0 0 1 -1 1z"/><path d="m37 48h2v2h-2z"/><path d="m9 48h2v2h-2z"/><path d="m13 48h2v2h-2z"/><path d="m17 48h2v2h-2z"/><path d="m21 48h2v2h-2z"/><path d="m41 48h2v2h-2z"/><path d="m49 48h2v2h-2z"/><path d="m25 48h2v2h-2z"/><path d="m29 48h2v2h-2z"/><path d="m33 48h2v2h-2z"/><path d="m53 48h2v2h-2z"/><path d="m41 52h6v2h-6z"/><path d="m49 52h2v2h-2z"/><path d="m53 52h2v2h-2z"/><path d="m9 52h2v2h-2z"/><path d="m13 52h2v2h-2z"/><path d="m17 52h6v2h-6z"/><path d="m49 6h-18a1 1 0 0 0 0 2h18a1 1 0 0 0 0-2z"/><path d="m16 6h-1a1 1 0 0 0 0 2h1a1 1 0 0 0 0-2z"/><path d="m20 6h-1a1 1 0 0 0 0 2h1a1 1 0 0 0 0-2z"/><path d="m24 6h-1a1 1 0 0 0 0 2h1a1 1 0 0 0 0-2z"/></g></g></svg>